<?xml version="1.0" ?><svg enable-background="new 0 0 24 24" id="Layer_1" version="1.1" viewBox="0 0 24 24" xml:space="preserve" xmlns="http://www.w3.org/2000/svg" xmlns:xlink="http://www.w3.org/1999/xlink"><g><path d="M18.5,7H17V5.9494019C18.1397095,5.7171021,19,4.7072144,19,3.5C19,2.121582,17.878418,1,16.5,1   c-0.5263672,0-1.0239258,0.1621094-1.4389648,0.4584961C14.5283203,0.5727539,13.5600586,0,12.5,0   c-0.6977539,0-1.3706055,0.2490234-1.9057617,0.6958008C9.9926758,0.2441406,9.2646484,0,8.5,0   C7.1289062,0,5.909668,0.7963867,5.3413086,2.0229492C3.5107422,1.777832,2,3.2333984,2,5   c0,1.3019409,0.838501,2.4015503,2,2.8156738V18.050293c0,1.1987305-0.2832031,2.3984375-0.8193359,3.4702148   C3.0625,21.7573242,3,22.0224609,3,22.2866211C3,23.2314453,3.7685547,24,4.7133789,24h11.5732422   C17.2314453,24,18,23.2314453,18,22.2866211c0-0.2641602-0.0625-0.5292969-0.1806641-0.7666016   C17.4251709,20.7324219,17.1705933,19.875,17.0618896,19H18.5c1.9296875,0,3.5-1.5703125,3.5-3.5v-5   C22,8.5703125,20.4296875,7,18.5,7z M19,15.5c0,0.2758789-0.2241211,0.5-0.5,0.5H17v-6h1.5c0.2758789,0,0.5,0.2241211,0.5,0.5V15.5   z" fill="#303C42"/><path d="M3,5c0-1.1030273,0.8969727-2,2-2c0.1567383,0,0.3227539,0.0253906,0.5219727,0.0795898   c0.2612305,0.0717773,0.5273438-0.0756836,0.6079102-0.3310547C6.4624023,1.7026367,7.4145508,1,8.5,1   c0.6645508,0,1.2905273,0.2587891,1.7626953,0.7285156c0.0986328,0.0976562,0.2392578,0.1586914,0.371582,0.1450195   c0.1386719-0.0048828,0.269043-0.0678711,0.359375-0.1728516C11.3779297,1.2553711,11.9272461,1,12.5,1   c0.8823242,0,1.6689453,0.5986328,1.9130859,1.4555664c0.0522461,0.1831055,0.2045898,0.3208008,0.3920898,0.3549805   c0.1918945,0.0351562,0.3789062-0.0419922,0.4912109-0.1953125C15.5844727,2.2241211,16.0234375,2,16.5,2   C17.3271484,2,18,2.6728516,18,3.5S17.3271484,5,16.5,5h-4.9485474c-0.0128174-0.1546021-0.0881958-0.3019409-0.2311401-0.3881836   c-0.2373047-0.1430664-0.5444336-0.0668945-0.6865234,0.1699219C9.9819336,5.8657227,8.6142578,6.3291016,7.4077148,5.7368164   c-0.2397461-0.1176758-0.53125-0.0244141-0.6591797,0.2104492C6.3955078,6.5966797,5.7255859,7,5,7C3.8969727,7,3,6.1030273,3,5z" fill="#FAFAFA"/><path d="M5.5,6.5c-1.1030273,0-2-0.8969727-2-2c0-0.4239502,0.1345215-0.8158569,0.3602905-1.1397095   C3.3416138,3.7219849,3,4.3209229,3,5c0,1.1030273,0.8969727,2,2,2c0.6437378,0,1.2303467-0.329834,1.604126-0.8549194   C6.2805786,6.3662109,5.9022217,6.5,5.5,6.5z" opacity="0.1"/><path d="M7.9077148,5.2368164c-0.2397461-0.1176758-0.53125-0.0244141-0.6591797,0.2104492   C7.196228,5.543457,7.1242676,5.6221313,7.0588989,5.7070312C7.171936,5.6765137,7.295166,5.6815796,7.4077148,5.7368164   c1.1158447,0.5477295,2.3619995,0.1853027,3.0598755-0.7286377C9.7558594,5.5339966,8.7900391,5.6699829,7.9077148,5.2368164z" opacity="0.1"/><linearGradient gradientUnits="userSpaceOnUse" id="SVGID_1_" x1="10.7545815" x2="10.5045815" y1="6.2480884" y2="21.9980888"><stop offset="0" style="stop-color:#FFCA28"/><stop offset="1" style="stop-color:#FF8F00"/></linearGradient><path d="M16.2866211,23H4.7133789C4.3198242,23,4,22.6801758,4,22.2866211   c0-0.1103516,0.0258789-0.2207031,0.0751953-0.3193359C4.6801758,20.7583008,5,19.4038086,5,18.050293V8   c0.940918,0,1.8178711-0.4477539,2.3803711-1.1923828C8.6417236,7.2478638,9.9973145,6.8889771,10.9161987,6H16v12.050293   c0,1.3535156,0.3198242,2.7080078,0.9248047,3.9165039C16.9741211,22.065918,17,22.1762695,17,22.2866211   C17,22.6801758,16.6801758,23,16.2866211,23z" fill="url(#SVGID_1_)"/><path d="M11.982666,21.6021118c-0.1396484-1.6350098-0.2134399-3.4675903-0.2134399-5.2987671V6   h-0.8530273C10.4454346,6.4554443,9.859436,6.7689819,9.2307739,6.9099731v9.3933716   c0,1.8311768-0.0737915,3.6637573-0.2134399,5.2994385C9.0059814,21.7362061,9,21.885498,9,22.0348511   C9,22.5672607,9.0737915,23,9.1646118,23h2.6707764C11.9262085,23,12,22.5672607,12,22.0348511   C12,21.885498,11.9940186,21.7362061,11.982666,21.6021118z" fill="#FFFFFF" opacity="0.2"/><path d="M13.482666,21.4787598c-0.1396484-1.7792969-0.2134399-3.7735596-0.2134399-5.7662964V6   h-2.3530273c-0.0585327,0.0565796-0.1235352,0.1046143-0.1854248,0.1568604v9.555603   c0,1.9927368-0.0737915,3.9869995-0.2134399,5.7670288C10.5059814,21.6246948,10.5,21.7871704,10.5,21.949646   C10.5,22.5290527,10.5737915,23,10.6646118,23h2.6707764C13.4262085,23,13.5,22.5290527,13.5,21.949646   C13.5,21.7871704,13.4940186,21.6246948,13.482666,21.4787598z" fill="#FFFFFF" opacity="0.1"/><path d="M9.9797974,21.4787598c-0.1629639-1.7792969-0.2490234-3.7735596-0.2490234-5.7662964   V6.7601318C8.9972534,7.0452881,8.1704102,7.083374,7.3803711,6.8076172   c-0.173645,0.2298584-0.3848877,0.4196167-0.611145,0.588501v8.3163452c0,1.9927368-0.0860596,3.9869995-0.2490234,5.7670288   C6.506958,21.6246948,6.5,21.7871704,6.5,21.949646C6.5,22.5290527,6.5861206,23,6.6920776,23h3.1159058   C9.9139404,23,10,22.5290527,10,21.949646C10,21.7871704,9.993042,21.6246948,9.9797974,21.4787598z" fill="#FFFFFF" opacity="0.1"/><path d="M5,22.2446289c0-0.1168213,0.0219116-0.2336426,0.0635986-0.3381348   c0.5119629-1.2800903,0.7825317-2.7142334,0.7825317-4.1473999V7.861084C5.5735474,7.9431152,5.2924805,8,5,8v10.050293   c0,1.3535156-0.3198242,2.7080078-0.9248047,3.9169922C4.0258789,22.065918,4,22.1762695,4,22.2866211   C4,22.6801758,4.3198242,23,4.7133789,23h0.8902588C5.2706299,23,5,22.661377,5,22.2446289z" fill="#FFFFFF" opacity="0.2"/><path d="M16.9248047,21.9667969C16.3198242,20.7583008,16,19.4038086,16,18.050293V6h-0.8461304v11.7590942   c0,1.4331665,0.2705688,2.8673096,0.7825317,4.1469116C15.9780884,22.0109863,16,22.1278076,16,22.2446289   C16,22.661377,15.7293701,23,15.3963623,23h0.8902588C16.6801758,23,17,22.6801758,17,22.2866211   C17,22.1762695,16.9741211,22.065918,16.9248047,21.9667969z" opacity="0.1"/><path d="M21,15.5c0,1.378418-1.121582,2.5-2.5,2.5H17v-1h1.5c0.8271484,0,1.5-0.6728516,1.5-1.5v-5   C20,9.6728516,19.3271484,9,18.5,9H17V8h1.5c1.378418,0,2.5,1.121582,2.5,2.5V15.5z" fill="#DDEEFD"/><path d="M7.5,9C7.2236328,9,7,9.2236328,7,9.5v10C7,19.7763672,7.2236328,20,7.5,20S8,19.7763672,8,19.5v-10   C8,9.2236328,7.7763672,9,7.5,9z" fill="#303C42"/><path d="M10.5,9C10.2236328,9,10,9.2236328,10,9.5v10c0,0.2763672,0.2236328,0.5,0.5,0.5s0.5-0.2236328,0.5-0.5v-10   C11,9.2236328,10.7763672,9,10.5,9z" fill="#303C42"/><path d="M13.5,9C13.2236328,9,13,9.2236328,13,9.5v10c0,0.2763672,0.2236328,0.5,0.5,0.5s0.5-0.2236328,0.5-0.5v-10   C14,9.2236328,13.7763672,9,13.5,9z" fill="#303C42"/><linearGradient gradientUnits="userSpaceOnUse" id="SVGID_2_" x1="0.4202901" x2="21.4266701" y1="7.7093945" y2="17.5048313"><stop offset="0" style="stop-color:#FFFFFF;stop-opacity:0.2"/><stop offset="1" style="stop-color:#FFFFFF;stop-opacity:0"/></linearGradient><path d="M18.5,7H17V5.9494019C18.1397095,5.7171021,19,4.7072144,19,3.5C19,2.121582,17.878418,1,16.5,1   c-0.5263672,0-1.0239258,0.1621094-1.4389648,0.4584961C14.5283203,0.5727539,13.5600586,0,12.5,0   c-0.6977539,0-1.3706055,0.2490234-1.9057617,0.6958008C9.9926758,0.2441406,9.2646484,0,8.5,0   C7.1289062,0,5.909668,0.7963867,5.3413086,2.0229492C3.5107422,1.777832,2,3.2333984,2,5   c0,1.3019409,0.838501,2.4015503,2,2.8156738V18.050293c0,1.1987305-0.2832031,2.3984375-0.8193359,3.4702148   C3.0625,21.7573242,3,22.0224609,3,22.2866211C3,23.2314453,3.7685547,24,4.7133789,24h11.5732422   C17.2314453,24,18,23.2314453,18,22.2866211c0-0.2641602-0.0625-0.5292969-0.1806641-0.7666016   C17.4251709,20.7324219,17.1705933,19.875,17.0618896,19H18.5c1.9296875,0,3.5-1.5703125,3.5-3.5v-5   C22,8.5703125,20.4296875,7,18.5,7z M19,15.5c0,0.2758789-0.2241211,0.5-0.5,0.5H17v-6h1.5c0.2758789,0,0.5,0.2241211,0.5,0.5V15.5   z" fill="url(#SVGID_2_)"/></g><g/><g/><g/><g/><g/><g/><g/><g/><g/><g/><g/><g/><g/><g/><g/></svg>