<?xml version="1.0" encoding="UTF-8" standalone="no"?>
<svg
   xmlns:dc="http://purl.org/dc/elements/1.1/"
   xmlns:cc="http://creativecommons.org/ns#"
   xmlns:rdf="http://www.w3.org/1999/02/22-rdf-syntax-ns#"
   xmlns:svg="http://www.w3.org/2000/svg"
   xmlns="http://www.w3.org/2000/svg"
   xmlns:sodipodi="http://sodipodi.sourceforge.net/DTD/sodipodi-0.dtd"
   xmlns:inkscape="http://www.inkscape.org/namespaces/inkscape"
   width="44.821766mm"
   height="59.702583mm"
   viewBox="0 0 44.821766 59.702583"
   version="1.1"
   id="svg8"
   inkscape:version="1.0.2 (e86c8708, 2021-01-15)"
   sodipodi:docname="test.svg">
  <defs
     id="defs2" />
  <sodipodi:namedview
     id="base"
     pagecolor="#ffffff"
     bordercolor="#666666"
     borderopacity="1.0"
     inkscape:pageopacity="0.0"
     inkscape:pageshadow="2"
     inkscape:zoom="2.4446966"
     inkscape:cx="72.595501"
     inkscape:cy="113.15916"
     inkscape:document-units="mm"
     inkscape:current-layer="layer1"
     inkscape:document-rotation="0"
     showgrid="false"
     inkscape:window-width="1440"
     inkscape:window-height="758"
     inkscape:window-x="1920"
     inkscape:window-y="25"
     inkscape:window-maximized="1"
     fit-margin-top="0"
     fit-margin-left="0"
     fit-margin-right="0"
     fit-margin-bottom="0" />
  <metadata
     id="metadata5">
    <rdf:RDF>
      <cc:Work
         rdf:about="">
        <dc:format>image/svg+xml</dc:format>
        <dc:type
           rdf:resource="http://purl.org/dc/dcmitype/StillImage" />
        <dc:title></dc:title>
      </cc:Work>
    </rdf:RDF>
  </metadata>
  <g
     inkscape:label="Layer 1"
     inkscape:groupmode="layer"
     id="layer1"
     style="display:inline"
     transform="translate(-75.319126,-118.31978)">
    <path
       style="fill:none;stroke:#000000;stroke-width:0.264583px;stroke-linecap:butt;stroke-linejoin:miter;stroke-opacity:1"
       d="m 97.414772,177.83608 c 0,0 -21.438011,-23.17994 -21.755965,-35.39404 -0.417478,-16.03727 12.555682,-23.8125 21.972441,-23.8125 9.416762,0 23.472052,7.08839 22.080682,23.59603 -1.39449,16.54459 -22.297158,35.61051 -22.297158,35.61051 z"
       id="path50"
       sodipodi:nodetypes="csssc" />
    <path
       style="fill:#00643c;fill-opacity:1;stroke:#ffffff;stroke-width:10.10000013;stroke-miterlimit:4;stroke-dasharray:none;stroke-opacity:1;opacity:1"
       d="m 361.74029,663.72437 c -43.37388,-49.76779 -70.45359,-93.2321 -74.47296,-119.53284 -1.20112,-7.85947 -0.51232,-20.00764 1.69158,-29.83411 7.74015,-34.51082 36.78458,-60.42015 72.68565,-64.83984 5.18866,-0.63877 15.35425,-0.24605 21.10006,0.81512 31.87788,5.88746 56.68964,26.16247 65.47414,53.50242 6.26985,19.51359 4.89442,41.1711 -4.0527,63.81416 -9.74764,24.66899 -28.2933,52.40943 -54.31378,81.24213 -6.96765,7.72069 -20.89988,21.90045 -21.51816,21.90045 -0.23888,0 -3.20611,-3.18037 -6.59383,-7.06749 z"
       id="path92"
       transform="scale(0.26458333)" />
    <path
       id="path110"
       style="fill:#ffffff;fill-opacity:1;stroke-width:0.216354;stroke-miterlimit:4;stroke-dasharray:none"
       d="m 90.074734,163.87513 c -1.353848,-7.02886 -1.935421,-14.16144 -3.16647,-21.20758 -2.575592,-0.0932 -2.434106,-2.94674 -1.409729,-4.46364 1.178898,-1.80109 1.87845,-3.75394 2.630464,-5.6094 1.610814,-1.13925 3.71152,-0.42215 5.573566,-0.5924 H 106.3359 c 0.6476,3.30055 3.91477,5.85344 3.52089,9.38323 -1.30963,1.48309 -3.10258,2.68713 -2.54836,4.88893 -0.84325,5.86872 -1.4778,11.76633 -2.57698,17.60086 -4.845163,0.42103 -9.75191,0.373 -14.591534,0.0124 z m 14.515016,-10.79822 c 0.0494,-3.47496 1.72677,-6.91795 0.88525,-10.38936 -2.6576,-0.57055 -6.142303,-0.0956 -9.116722,-0.25988 -2.245916,0.33073 -5.622388,-0.62378 -7.159802,0.61875 -0.553601,2.84427 0.839922,5.60455 0.80635,8.44378 0.476323,3.57523 0.942455,7.15195 1.48489,10.71912 3.920781,0.48767 7.877121,0.0837 11.814044,0.15307 0.42866,-3.09515 0.85733,-6.19033 1.28599,-9.28548 z m -9.851638,1.42283 c -2.625486,-1.30572 -2.026194,-4.84045 -0.131152,-6.48551 1.482247,-1.34105 4.023457,-2.31689 5.79691,-0.85302 1.98859,1.40346 1.97602,4.36108 0.0768,5.83412 -1.340803,1.50284 -3.750139,2.44765 -5.7426,1.50441 z m 3.587183,-1.93634 c 1.477962,-0.34859 1.899175,-3.29908 -0.01204,-1.44679 -1.360868,0.004 -3.613266,2.92863 -0.912399,1.85299 0.315468,-0.12032 0.622367,-0.25934 0.924505,-0.4062 z m -1.368221,-2.61211 c 1.674103,0.0892 2.493203,-2.93553 0.239507,-1.55661 -1.338518,-0.0427 -3.429844,3.74364 -1.059565,2.03165 0.221135,-0.23008 0.542595,-0.32314 0.820058,-0.47504 z m 11.063086,-9.65489 c 0.48684,-2.37484 -2.51396,-2.49684 -4.24838,-2.24312 H 87.36164 c -1.591387,1.83735 0.451209,3.46402 2.468673,2.71261 h 18.334417 z m -2.22099,-4.48622 c 0.26495,-2.5723 -3.03426,-2.35948 -4.89153,-2.07168 -3.793972,-0.0491 -7.604164,0.0225 -11.405822,0.0373 -1.775148,2.59477 2.037506,3.02002 3.951289,2.57176 4.156564,0.0299 8.329033,0.0497 12.494473,0.0362 -0.0495,-0.1912 -0.0989,-0.38238 -0.14841,-0.57358 z m -13.480766,-4.7809 c 1.054914,-2.49645 -1.608748,-4.71572 -1.039034,-7.09811 0.455772,-1.89662 4.409753,-2.38185 2.464934,0.0194 -2.371846,2.02443 2.760221,4.75568 -0.110813,6.68936 -0.394236,0.29776 -0.813255,0.39522 -1.315084,0.38944 z m 4.45983,-0.11227 c 1.077294,-2.31241 -0.853666,-4.22171 -1.259245,-6.21145 0.02253,-1.41671 3.530918,-3.9748 3.064688,-1.30886 -1.722974,1.271 -0.364214,3.29 0.22836,4.75669 0.73321,1.1898 -0.489041,3.29756 -2.033803,2.76362 z m 4.427996,-0.16395 c 1.54512,-2.4522 -2.039843,-4.82107 -0.62366,-7.25488 0.4348,-1.35185 3.67907,-2.0636 2.43188,0.0655 -1.13422,1.38559 -0.85489,2.29777 0.14,3.61091 0.66632,1.45254 0.57969,4.32665 -1.94822,3.57854 z"
       sodipodi:nodetypes="cccccccccccccccccccscccssccccccccccccccccccccccccccccccsccccs" />
  </g>
</svg>
